<svg width="32" height="32" viewBox="0 0 32 32" fill="none" xmlns="http://www.w3.org/2000/svg">
<path d="M13.6 23.2C11.7013 23.2 9.84524 22.637 8.26653 21.5821C6.68782 20.5272 5.45736 19.0279 4.73076 17.2738C4.00416 15.5196 3.81405 13.5894 4.18447 11.7271C4.55488 9.86492 5.46919 8.15436 6.81178 6.81178C8.15436 5.46919 9.86492 4.55488 11.7271 4.18447C13.5894 3.81405 15.5196 4.00416 17.2738 4.73076C19.0279 5.45736 20.5272 6.68782 21.5821 8.26653C22.637 9.84524 23.2 11.7013 23.2 13.6C23.2 14.8607 22.9517 16.109 22.4692 17.2738C21.9868 18.4385 21.2797 19.4968 20.3882 20.3882C19.4968 21.2797 18.4385 21.9868 17.2738 22.4692C16.109 22.9517 14.8607 23.2 13.6 23.2ZM13.6 5.74546C12.0465 5.74546 10.5279 6.20612 9.23625 7.06919C7.94458 7.93226 6.93784 9.15897 6.34335 10.5942C5.74886 12.0294 5.59331 13.6087 5.89638 15.1323C6.19945 16.656 6.94752 18.0555 8.046 19.154C9.14448 20.2525 10.544 21.0006 12.0677 21.3036C13.5913 21.6067 15.1706 21.4511 16.6058 20.8567C18.041 20.2622 19.2677 19.2554 20.1308 17.9638C20.9939 16.6721 21.4545 15.1535 21.4545 13.6C21.4545 12.5685 21.2514 11.5472 20.8567 10.5942C20.4619 9.64124 19.8834 8.77536 19.154 8.046C18.4246 7.31664 17.5588 6.73808 16.6058 6.34335C15.6529 5.94862 14.6315 5.74546 13.6 5.74546Z" fill="#54565A"/>
<path d="M26.4659 27.7655L18.3999 20.7371L19.6716 19.6001L27.7376 26.6285C27.9056 26.7796 27.9999 26.984 27.9999 27.197C27.9999 27.4101 27.9056 27.6145 27.7376 27.7655C27.5686 27.9157 27.3401 28 27.1018 28C26.8635 28 26.6349 27.9157 26.4659 27.7655Z" fill="#54565A"/>
</svg>
